# Blender 3.3.1
# www.blender.org
mtllib mano.mtl
o Cube.001_Cube.002
v 101.407349 9.206429 -44.852890
v 101.493561 9.211394 -44.815746
v 101.497108 9.244734 -44.630192
v 101.412361 9.253580 -44.590473
v 101.326149 9.248620 -44.627628
v 101.317528 9.232104 -44.720303
v 101.342293 9.215944 -44.805252
v 101.415718 7.857358 -44.980946
v 101.551643 7.865761 -44.919178
v 101.610374 7.892159 -44.766003
v 101.557510 7.921102 -44.611153
v 101.424034 7.935627 -44.545341
v 101.288109 7.927231 -44.607113
v 101.229370 7.900824 -44.760284
v 101.282234 7.871886 -44.915134
v 101.528351 8.537255 -44.874134
v 101.578865 8.559523 -44.744873
v 101.533310 8.583964 -44.614174
v 101.418373 8.596277 -44.558609
v 101.301384 8.589241 -44.610695
v 101.250870 8.566980 -44.739948
v 101.296417 8.542532 -44.870655
v 101.411354 8.530225 -44.926224
v 101.294983 9.282915 -44.636631
v 101.271439 9.700289 -44.619793
v 101.458389 9.289053 -44.584370
v 101.368996 9.703949 -44.588596
v 101.402351 9.267727 -44.858292
v 101.400665 9.609962 -44.932907
v 101.451553 9.265032 -44.860725
v 101.460159 9.609058 -44.913292
v 101.497696 9.266851 -44.823879
v 101.511734 9.274108 -44.728085
v 101.493843 9.285775 -44.626610
v 101.399292 9.708547 -44.680305
v 101.424423 9.698403 -44.770958
v 101.447784 9.654935 -44.844406
v 101.322403 9.276121 -44.735817
v 101.345406 9.268546 -44.803699
v 101.357796 9.654219 -44.873672
v 101.328224 9.696560 -44.802048
v 101.319847 9.706079 -44.705814
v 101.229012 10.036436 -44.621777
v 101.275665 10.038187 -44.606861
v 101.291130 10.040830 -44.656837
v 101.251190 10.039825 -44.669712
v 101.326691 10.075293 -44.747993
v 101.337372 10.074230 -44.782993
v 101.294083 10.073285 -44.796955
v 101.274651 10.073676 -44.764690
v 101.347137 10.006401 -44.856430
v 101.363747 9.995552 -44.908966
v 101.325630 9.995287 -44.920784
v 101.299484 10.005386 -44.871422
v 101.396461 9.832733 -45.032425
v 101.427185 9.832268 -45.022301
v 101.415909 9.854846 -44.987663
v 101.374794 9.854519 -45.001041
v 101.235313 9.467194 -44.559868
v 101.228798 9.553621 -44.605141
v 101.332085 9.453734 -44.521469
v 101.339905 9.557795 -44.569611
v 101.146988 9.702744 -44.455696
v 101.173149 9.729801 -44.491520
v 101.218391 9.705426 -44.432865
v 101.242302 9.732403 -44.469395
v 101.513107 9.227608 -44.730236
v 101.294167 9.662787 -44.531162
v 101.204041 9.659405 -44.559990
v 101.195618 9.594211 -44.515522
v 101.267921 9.593205 -44.485813
v 101.338448 9.834991 -44.586334
v 101.363037 9.838840 -44.662003
v 101.298775 9.836933 -44.682652
v 101.260460 9.832062 -44.611275
v 101.308624 9.841709 -44.724064
v 101.381218 9.843964 -44.700752
v 101.401978 9.836824 -44.774277
v 101.321602 9.835245 -44.800243
v 101.424080 9.791506 -44.869011
v 101.353546 9.790952 -44.891308
v 101.324356 9.807553 -44.823624
v 101.402313 9.809082 -44.798870
v 101.374252 9.727097 -44.927166
v 101.446014 9.727672 -44.903816
v 101.457985 9.690483 -44.959934
v 101.409218 9.691225 -44.976006
vn 0.4319 -0.0696 0.8993
vn 0.9422 -0.0413 0.3324
vn 0.9336 -0.0199 -0.3577
vn 0.4112 -0.0140 -0.9115
vn -0.4407 -0.0210 -0.8974
vn -0.9469 -0.0353 -0.3197
vn -0.9279 -0.0562 0.3686
vn -0.4055 -0.0759 0.9110
vn -0.3951 -0.1004 0.9132
vn -0.9422 -0.0882 0.3231
vn -0.9668 -0.0744 -0.2445
vn -0.4342 -0.0466 -0.8996
vn 0.4037 -0.0396 -0.9140
vn 0.9670 -0.0662 -0.2461
vn 0.9403 -0.0997 0.3254
vn 0.4852 -0.1043 0.8682
vn -0.3057 0.1823 0.9345
vn 0.9494 0.0223 -0.3133
vn 0.1477 -0.1817 -0.9722
vn -0.9254 -0.0076 -0.3788
vn -0.6437 -0.0365 -0.7644
vn 0.9008 0.3109 0.3032
vn -0.2744 0.4832 0.8314
vn 0.2988 -0.0969 -0.9494
vn -0.3068 0.1204 0.9441
vn 0.9834 -0.0370 -0.1774
vn -0.9523 0.0350 -0.3031
vn 0.4752 -0.3163 -0.8211
vn -0.8443 -0.1181 -0.5228
vn -0.8341 -0.0724 -0.5469
vn -0.9824 -0.0157 -0.1862
vn 0.8744 0.2219 0.4314
vn 0.9556 0.2266 0.1883
vn 0.9860 0.1669 0.0043
vn -0.0458 0.9980 0.0439
vn 0.3003 0.1309 -0.9448
vn -0.3046 0.0021 0.9525
vn -0.8747 -0.1670 -0.4551
vn -0.0174 0.9994 -0.0294
vn 0.9310 0.2664 0.2496
vn 0.3060 0.0484 -0.9508
vn -0.9503 -0.1462 -0.2748
vn 0.0428 0.9820 -0.1839
vn -0.9034 -0.1922 -0.3833
vn -0.2997 0.1886 0.9352
vn 0.9234 0.3180 0.2152
vn 0.1629 0.8546 -0.4930
vn 0.9628 0.2592 0.0759
vn -0.8665 -0.2490 -0.4327
vn 0.2907 -0.3316 -0.8975
vn 0.1847 0.7257 -0.6628
vn -0.2995 -0.4878 0.8200
vn 0.4751 0.1619 0.8649
vn -0.6806 -0.0817 -0.7281
vn -0.1913 0.8453 0.4989
vn -0.2849 -0.5335 0.7964
vn 0.8058 0.0791 0.5869
vn -0.8867 -0.0659 -0.4577
vn -0.3395 0.1112 0.9340
vn -0.0542 -0.0921 -0.9943
vn 0.9862 0.0418 0.1599
vn 0.4958 -0.3762 0.7827
vn -0.9417 -0.3324 -0.0519
vn -0.9473 -0.1543 -0.2808
vn 0.7818 0.1696 0.6000
vn -0.3720 -0.3969 0.8391
vn 0.2603 0.4299 -0.8645
vn -0.8735 -0.0482 -0.4845
vn -0.3005 -0.0865 0.9498
vn 0.2930 0.2123 -0.9322
vn 0.9254 0.2118 0.3142
vn -0.9907 -0.0714 -0.1161
vn 0.3069 0.0270 -0.9514
vn 0.9545 0.1629 0.2497
vn -0.3070 0.1019 0.9462
vn 0.9534 0.2204 0.2059
vn -0.3037 0.1735 0.9368
vn -0.9305 -0.0868 -0.3558
vn 0.3046 -0.1150 -0.9455
vn 0.2693 -0.4733 -0.8388
vn -0.8549 -0.1687 -0.4906
vn 0.9868 0.1081 0.1204
vn -0.2498 0.6089 0.7529
vt 0.112850 0.823456
vt 0.112850 0.823456
vt 0.112850 0.823456
vt 0.112850 0.823456
vt 0.112850 0.823456
vt 0.112850 0.823456
vt 0.112850 0.823456
vt 0.112850 0.823456
vt 0.112850 0.823456
vt 0.112850 0.823456
vt 0.112850 0.823456
vt 0.112850 0.823456
vt 0.112850 0.823456
vt 0.112850 0.823456
vt 0.112850 0.823456
vt 0.112850 0.823456
vt 0.112850 0.823456
vt 0.112850 0.823456
vt 0.112850 0.823456
vt 0.112850 0.823456
vt 0.112850 0.823456
vt 0.112850 0.823456
vt 0.112850 0.823456
vt 0.112850 0.823456
vt 0.112850 0.823456
vt 0.355038 0.862518
vt 0.112850 0.823456
vt 0.355038 0.862518
vt 0.112850 0.823456
vt 0.112850 0.823456
vt 0.112850 0.823456
vt 0.112850 0.823456
vt 0.112850 0.823456
vt 0.112850 0.823456
vt 0.112850 0.823456
vt 0.112850 0.823456
vt 0.112850 0.823456
vt 0.355038 0.862518
vt 0.112850 0.823456
vt 0.355038 0.862518
vt 0.112850 0.823456
vt 0.355038 0.862518
vt 0.112850 0.823456
vt 0.112850 0.823456
vt 0.112850 0.823456
vt 0.355038 0.862518
vt 0.355038 0.862518
vt 0.112850 0.823456
vt 0.112850 0.823456
vt 0.355038 0.862518
vt 0.355038 0.862518
vt 0.112850 0.823456
vt 0.112850 0.823456
vt 0.355038 0.862518
vt 0.112850 0.823456
vt 0.112850 0.823456
vt 0.355038 0.862518
vt 0.112850 0.823456
vt 0.112850 0.823456
vt 0.112850 0.823456
vt 0.355038 0.862518
vt 0.112850 0.823456
vt 0.355038 0.862518
vt 0.112850 0.823456
vt 0.112850 0.823456
vt 0.112850 0.823456
vt 0.112850 0.823456
vt 0.355038 0.862518
vt 0.112850 0.823456
vt 0.112850 0.823456
vt 0.355038 0.862518
vt 0.112850 0.823456
vt 0.355038 0.862518
vt 0.112850 0.823456
vt 0.112850 0.823456
vt 0.355038 0.862518
vt 0.112850 0.823456
vt 0.112850 0.823456
vt 0.355038 0.862518
vt 0.112850 0.823456
vt 0.112850 0.823456
vt 0.112850 0.823456
vt 0.112850 0.823456
vt 0.112850 0.823456
vt 0.112850 0.823456
vt 0.112850 0.823456
vt 0.112850 0.823456
vt 0.112850 0.823456
vt 0.112850 0.823456
vt 0.355038 0.862518
vt 0.112850 0.823456
vt 0.112850 0.823456
vt 0.112850 0.823456
vt 0.112850 0.823456
vt 0.355038 0.862518
vt 0.112850 0.823456
vt 0.355038 0.862518
vt 0.112850 0.823456
vt 0.355038 0.862518
vt 0.112850 0.823456
vt 0.112850 0.823456
vt 0.112850 0.823456
vt 0.112850 0.823456
vt 0.355038 0.862518
vt 0.112850 0.823456
vt 0.112850 0.823456
vt 0.355038 0.862518
vt 0.112850 0.823456
vt 0.355038 0.862518
vt 0.112850 0.823456
vt 0.355038 0.862518
vt 0.112850 0.823456
vt 0.112850 0.823456
s 0
usemtl Material.008
f 22/22/1 15/15/1 8/8/1 23/23/1
f 21/21/2 14/14/2 15/15/2 22/22/2
f 20/20/3 13/13/3 14/14/3 21/21/3
f 19/19/4 12/12/4 13/13/4 20/20/4
f 18/18/5 11/11/5 12/12/5 19/19/5
f 17/17/6 10/10/6 11/11/6 18/18/6
f 16/16/7 9/9/7 10/10/7 17/17/7
f 23/23/8 8/8/8 9/9/8 16/16/8
f 1/1/9 23/23/9 16/16/9 2/2/9
f 2/2/10 16/16/10 17/17/10 67/85/10
f 67/85/11 17/17/11 18/18/11 3/3/11
f 3/3/12 18/18/12 19/19/12 4/4/12
f 4/4/13 19/19/13 20/20/13 5/5/13
f 5/5/14 20/20/14 21/21/14 6/6/14
f 6/6/15 21/21/15 22/22/15 7/7/15
f 7/7/16 22/22/16 23/23/16 1/1/16
f 25/26/17 60/76/17 62/79/17 27/28/17
f 32/34/18 30/32/18 31/33/18 37/41/18
f 30/32/19 28/30/19 29/31/19 31/33/19
f 38/43/20 24/24/20 25/25/20 42/49/20
f 28/30/21 1/1/21 7/7/21 39/44/21
f 73/92/22 45/55/22 44/53/22 72/91/22
f 85/111/23 57/71/23 58/73/23 84/109/23
f 81/103/24 53/66/24 52/65/24 80/102/24
f 77/99/25 47/57/25 50/61/25 76/97/25
f 33/35/26 67/85/26 2/2/26 32/34/26
f 39/44/27 7/7/27 6/6/27 38/43/27
f 32/34/28 2/2/28 1/1/28 30/32/28
f 28/30/29 40/45/29 29/31/29
f 28/30/30 39/44/30 41/48/30 40/45/30
f 39/44/31 38/43/31 42/49/31 41/48/31
f 26/27/32 34/36/32 35/37/32 27/29/32
f 34/36/33 33/35/33 36/39/33 35/37/33
f 33/35/34 32/34/34 37/41/34 36/39/34
f 45/55/35 46/56/35 43/52/35 44/53/35
f 74/93/36 46/56/36 45/55/36 73/92/36
f 72/90/37 44/54/37 43/51/37 75/95/37
f 75/94/38 43/52/38 46/56/38 74/93/38
f 48/59/39 49/60/39 50/62/39 47/58/39
f 78/100/40 48/59/40 47/58/40 77/98/40
f 79/101/41 49/60/41 48/59/41 78/100/41
f 76/96/42 50/62/42 49/60/42 79/101/42
f 52/65/43 53/66/43 54/67/43 51/64/43
f 82/105/44 54/67/44 53/66/44 81/103/44
f 83/107/45 51/63/45 54/68/45 82/104/45
f 80/102/46 52/65/46 51/64/46 83/106/46
f 56/70/47 55/69/47 58/74/47 57/72/47
f 86/112/48 56/70/48 57/72/48 85/110/48
f 84/108/49 58/74/49 55/69/49 87/113/49
f 87/113/50 55/69/50 56/70/50 86/112/50
f 69/87/51 64/82/51 66/84/51 68/86/51
f 26/27/52 61/78/52 59/75/52 24/24/52
f 27/29/53 62/80/53 61/78/53 26/27/53
f 24/24/54 59/75/54 60/77/54 25/25/54
f 63/81/55 65/83/55 66/84/55 64/82/55
f 71/89/56 65/83/56 63/81/56 70/88/56
f 68/86/57 66/84/57 65/83/57 71/89/57
f 70/88/58 63/81/58 64/82/58 69/87/58
f 24/24/59 5/5/59 4/4/59 26/27/59
f 30/32/60 1/1/60 28/30/60
f 34/36/61 3/3/61 67/85/61 33/35/61
f 26/27/62 4/4/62 3/3/62 34/36/62
f 38/43/63 6/6/63 5/5/63 24/24/63
f 59/75/64 70/88/64 69/87/64 60/77/64
f 62/80/65 68/86/65 71/89/65 61/78/65
f 61/78/66 71/89/66 70/88/66 59/75/66
f 60/77/67 69/87/67 68/86/67 62/80/67
f 25/25/68 75/94/68 74/93/68 42/49/68
f 27/28/69 72/90/69 75/95/69 25/26/69
f 42/49/70 74/93/70 73/92/70 35/37/70
f 35/37/71 73/92/71 72/91/71 27/29/71
f 42/49/72 76/96/72 79/101/72 41/48/72
f 41/48/73 79/101/73 78/100/73 36/39/73
f 36/39/74 78/100/74 77/98/74 35/37/74
f 35/38/75 77/99/75 76/97/75 42/50/75
f 37/41/76 80/102/76 83/106/76 36/39/76
f 36/40/77 83/107/77 82/104/77 41/47/77
f 41/48/78 82/105/78 81/103/78 40/45/78
f 40/45/79 81/103/79 80/102/79 37/41/79
f 29/31/80 87/113/80 86/112/80 31/33/80
f 40/45/81 84/108/81 87/113/81 29/31/81
f 31/33/82 86/112/82 85/110/82 37/41/82
f 37/42/83 85/111/83 84/109/83 40/46/83
